PathFileType  4	(X/Y/Z) C:\Users\antoi\Documents\MyRepositories\mobilecap\ResultsAnalysis
DataRate	CameraRate	NumFrames	NumMarkers	Units	OrigDataRate	OrigDataStartFrame	OrigNumFrames
100.0	100.0	4	51	mm	100.0	59	232
Frame#	Time	r_knee			r_shank_antsup			r_ankle			r_calc			r_5meta			r_toe			L_knee			L_shank_antsup			L_ankle			L_calc			L_5meta			L_toe			r_sh2			r_sh3			r_sh4			L_sh2			L_sh3			r_thigh1			r_thigh2			r_thigh3			r_thigh4			r_thigh5			L_thigh1			L_thigh2			L_thigh3			L_thigh4			r.ASIS			r.PSIS			L.ASIS			L.PSIS			C7			R_Shoulder			L_Shoulder			R_Sternum			L_Sternum			R_humerus			R_elbow_med			R_elbow_lat			R_forearm			R_wrist_radius			R_wrist_ulna			L_humerus			L_elbow_med			L_elbow_lat			L_forearm			L_wrist_radius			L_wrist_ulna			R_HJC			L_HJC			R_HJC_reg			L_HJC_reg			
		X1	Y1	Z1	X2	Y2	Z2	X3	Y3	Z3	X4	Y4	Z4	X5	Y5	Z5	X6	Y6	Z6	X7	Y7	Z7	X8	Y8	Z8	X9	Y9	Z9	X10	Y10	Z10	X11	Y11	Z11	X12	Y12	Z12	X13	Y13	Z13	X14	Y14	Z14	X15	Y15	Z15	X16	Y16	Z16	X17	Y17	Z17	X18	Y18	Z18	X19	Y19	Z19	X20	Y20	Z20	X21	Y21	Z21	X22	Y22	Z22	X23	Y23	Z23	X24	Y24	Z24	X25	Y25	Z25	X26	Y26	Z26	X27	Y27	Z27	X28	Y28	Z28	X29	Y29	Z29	X30	Y30	Z30	X31	Y31	Z31	X32	Y32	Z32	X33	Y33	Z33	X34	Y34	Z34	X35	Y35	Z35	X36	Y36	Z36	X37	Y37	Z37	X38	Y38	Z38	X39	Y39	Z39	X40	Y40	Z40	X41	Y41	Z41	X42	Y42	Z42	X43	Y43	Z43	X44	Y44	Z44	X45	Y45	Z45	X46	Y46	Z46	X47	Y47	Z47	X48	Y48	Z48	X49	Y49	Z49	X50	Y50	Z50	X51	Y51	Z51	

59	0.58000000	-976.77995	723.96175	-426.18252	-962.70734	640.59408	-451.32412	-1208.07511	404.77004	-460.23805	-1291.49683	375.45381	-490.28735	-1114.83954	350.28576	-430.45746	-1070.24235	371.73616	-492.79826	-955.97823	713.83575	-701.54320	-964.21451	615.06646	-701.42212	-1217.47624	426.07530	-691.71934	-1297.74232	399.25729	-654.22967	-1131.10010	353.54833	-735.41720	-1088.67908	367.36415	-677.11796	-1042.39369	558.15605	-431.36867	-1015.99357	691.92669	-409.93601	-1093.90604	608.60140	-409.64714	-1023.44405	679.61534	-717.18457	-1104.59734	587.90429	-725.76468	-1043.51133	1038.26544	-388.06424	-1002.31952	933.86815	-395.83875	-1045.85381	890.34956	-371.83733	-1147.94696	995.11232	-378.08002	-1100.22562	888.17512	-384.62796	-1049.19658	962.17865	-761.04173	-976.45266	847.46302	-732.76493	-1144.80122	910.81032	-714.43031	-1065.76427	793.62898	-701.67138	-1043.61162	1131.66959	-438.51833	-1193.72073	1243.82177	-532.13504	-1037.71282	1093.38076	-688.25519	-1192.75486	1237.88668	-634.83271	-962.39931	1572.78479	-579.74553	-883.80066	1489.82934	-400.58723	-862.39982	1502.54379	-740.23156	-844.02440	1486.34713	-546.15385	-837.91449	1483.89012	-581.70761	-898.04319	1362.58719	-337.35830	-941.71259	1144.34007	-385.12958	-926.74294	1161.36833	-316.72456	-805.31607	1082.83602	-315.72852	-712.75966	992.61400	-328.73551	-727.57237	968.59312	-307.59906	-858.66088	1389.83260	-802.47013	-918.78610	1155.11908	-766.09769	-884.56147	1179.21755	-835.07465	-793.13172	1114.11963	-795.32023	-701.47299	994.70262	-758.23539	-715.22484	978.78301	-784.26668	-1148.09179	1093.42068	-460.55269	-1143.50393	1069.07813	-665.53072	-1140.52340	1084.90582	-471.87740	-1138.95683	1075.28508	-638.38963	
60	0.59000000	-970.87418	719.34426	-425.03155	-957.52494	635.86023	-450.53722	-1207.05354	405.33596	-460.18153	-1291.07337	376.32225	-490.53280	-1114.67447	350.02809	-430.47785	-1069.74836	371.14643	-492.66880	-949.26863	708.57708	-700.01980	-959.15815	609.96053	-699.89030	-1216.31899	426.23039	-691.45447	-1297.07410	399.93058	-654.50040	-1130.76014	353.35213	-735.56809	-1088.32022	366.66555	-677.01061	-1038.67478	554.99613	-430.84330	-1010.09752	688.07514	-408.90912	-1089.21989	605.97852	-409.28069	-1017.16316	675.46132	-716.12879	-1100.15717	585.34856	-724.92070	-1038.64743	1033.45334	-386.68111	-997.08532	928.94128	-394.34051	-1041.07296	885.45342	-371.11731	-1143.13143	990.23644	-378.58158	-1095.26700	883.13357	-384.59040	-1041.49050	957.12017	-760.25327	-969.42098	842.25113	-731.42685	-1137.54127	906.20858	-713.60068	-1059.07497	788.72472	-700.63879	-1038.95099	1127.52605	-437.47438	-1189.34014	1238.43065	-532.77347	-1031.35001	1088.85112	-687.47812	-1187.77757	1232.32750	-636.23318	-960.31398	1569.99323	-580.02092	-880.75865	1488.65935	-400.92807	-858.87059	1501.53860	-740.12300	-840.76555	1484.63749	-546.11889	-834.64030	1483.12721	-581.62898	-892.26987	1362.05569	-336.72816	-924.87301	1141.81843	-385.49917	-913.61487	1159.54219	-316.49375	-784.29788	1092.49899	-315.54042	-683.47465	1012.52679	-330.16325	-695.59375	986.62738	-309.67174	-853.27153	1389.65704	-803.15349	-903.38733	1153.32470	-765.57410	-872.98191	1179.36597	-837.84863	-776.54678	1121.90253	-795.78706	-675.23470	1012.19798	-753.82582	-687.18397	995.02775	-780.73202	-1143.23820	1088.62309	-460.59334	-1136.95577	1063.71549	-665.46092	-1135.38050	1079.90633	-471.33398	-1132.86290	1070.07009	-638.06344	
61	0.60000000	-965.20476	715.07845	-424.04077	-952.63219	631.56324	-450.07774	-1205.97504	405.92764	-460.25960	-1290.90669	377.41930	-491.01959	-1114.48128	349.84851	-430.47240	-1069.22541	370.54515	-492.44953	-943.88303	703.30503	-698.44433	-955.14229	604.97123	-698.13843	-1215.59829	426.02200	-691.49006	-1296.82878	399.84252	-654.75434	-1130.61802	352.99657	-735.61405	-1088.14533	366.18141	-677.03674	-1035.21698	552.12926	-430.59860	-1004.35796	684.24775	-408.38328	-1084.81310	603.71083	-409.08721	-1012.06887	671.22778	-715.09910	-1096.51893	582.31551	-723.93556	-1032.91601	1029.03841	-385.69737	-991.68507	924.38135	-393.13548	-1036.10760	881.04318	-370.76812	-1137.75391	986.19960	-379.32072	-1090.16331	878.77785	-385.09818	-1033.42291	952.56362	-759.19617	-962.72207	837.01297	-729.85555	-1130.24162	902.70600	-712.74099	-1053.19082	784.44237	-699.53475	-1033.54706	1124.05182	-436.62404	-1184.04259	1234.09118	-533.18995	-1023.95384	1085.61414	-686.76606	-1181.83087	1228.13125	-636.81889	-958.16092	1568.37139	-580.06488	-877.31821	1489.37433	-401.07887	-855.26728	1502.48059	-740.30262	-837.21124	1484.23528	-546.46656	-830.03213	1485.17689	-581.36686	-885.33870	1363.20195	-336.53126	-908.59154	1141.89733	-385.55966	-900.43214	1160.02082	-315.55212	-764.40567	1105.52861	-315.56275	-656.28363	1036.93838	-331.64701	-665.31431	1009.31151	-311.77065	-847.87959	1391.37147	-803.79954	-890.17971	1153.32646	-767.40566	-861.48811	1181.43890	-840.45539	-760.78157	1132.53215	-795.87728	-650.54734	1034.42147	-749.98423	-660.68050	1015.44762	-777.09393	-1137.52782	1084.56737	-460.71780	-1129.55174	1059.77747	-665.54030	-1129.39787	1075.77782	-471.12583	-1125.83594	1066.18185	-637.96426	
62	0.61000000	-959.97534	711.34238	-423.22375	-948.18923	627.75749	-449.82451	-1204.97369	406.45429	-460.64691	-1290.32523	378.67696	-491.59257	-1114.30149	349.74085	-430.49007	-1068.63382	369.94269	-492.32130	-939.83148	698.11989	-696.88832	-952.15426	600.38384	-696.57973	-1215.25371	425.61298	-691.54366	-1296.87552	399.25317	-654.91719	-1130.63633	352.67428	-735.66346	-1088.10757	365.80354	-677.13564	-1032.03047	549.62236	-430.62293	-998.49256	681.29963	-407.61798	-1080.76942	602.06567	-408.94946	-1008.18746	667.28361	-714.05760	-1093.69106	579.32984	-722.94588	-1026.41314	1025.31120	-384.93706	-986.02315	920.58699	-392.17496	-1030.96509	877.36612	-370.75424	-1131.66791	983.31462	-380.22885	-1084.85124	875.50256	-385.99175	-1025.03872	948.74243	-758.13755	-956.33981	832.03930	-728.25765	-1122.90367	900.56388	-712.16776	-1048.02640	780.98672	-698.27184	-1027.21424	1121.58633	-435.91065	-1177.79512	1230.97886	-533.51013	-1015.51696	1083.83486	-686.17589	-1175.00623	1225.27605	-637.03739	-955.94135	1568.06475	-580.19979	-873.36338	1492.12244	-401.31457	-851.24250	1505.46968	-740.72366	-833.75305	1485.95049	-545.93090	-826.27629	1486.89855	-581.45898	-877.74179	1366.36318	-336.57721	-893.15955	1144.48239	-385.15700	-887.00742	1162.82401	-314.03708	-745.88858	1121.65782	-315.67408	-631.81089	1065.30450	-333.01446	-637.56090	1036.14894	-313.94010	-842.58101	1395.23129	-804.50591	-877.78955	1155.67638	-769.62209	-850.17458	1185.18587	-842.22027	-746.21101	1145.96943	-795.64344	-628.25764	1060.85564	-746.88285	-636.46568	1039.54612	-773.34129	-1130.81947	1081.54125	-460.95028	-1121.18226	1057.28017	-665.76347	-1122.39011	1072.89367	-471.04045	-1117.89232	1063.70036	-637.95056	
